<?xml version="1.0" standalone="no"?>
<!DOCTYPE svg PUBLIC "-//W3C//DTD SVG 20010904//EN"
 "http://www.w3.org/TR/2001/REC-SVG-20010904/DTD/svg10.dtd">
<svg version="1.0" xmlns="http://www.w3.org/2000/svg"
 width="512.000000pt" height="512.000000pt" viewBox="0 0 512.000000 512.000000"
 preserveAspectRatio="xMidYMid meet">
<metadata>
Created by potrace 1.11, written by Peter Selinger 2001-2013
</metadata>
<g transform="translate(0.000000,512.000000) scale(0.100000,-0.100000)"
fill="#000000" stroke="none">
<path d="M2222 3944 c-7 -12 -12 -14 -12 -5 0 11 -3 11 -17 0 -9 -8 -14 -9
-10 -3 3 6 0 11 -8 11 -8 0 -12 -4 -9 -9 3 -4 0 -8 -5 -8 -6 0 -11 5 -11 10 0
6 -5 10 -11 10 -5 0 -7 -5 -3 -12 5 -8 0 -9 -14 -6 -12 4 -20 2 -17 -3 4 -5
-8 -7 -24 -5 -17 2 -31 -1 -31 -6 0 -6 -7 -8 -15 -5 -8 4 -17 2 -20 -3 -3 -4
-16 -7 -30 -6 -14 2 -22 -1 -18 -7 3 -6 -6 -8 -25 -5 -17 2 -30 0 -29 -5 2
-10 -25 -19 -60 -19 -14 0 -20 -4 -16 -11 4 -6 -2 -8 -15 -5 -12 4 -26 0 -33
-9 -10 -11 -14 -11 -20 -1 -7 10 -9 8 -9 -5 0 -10 -5 -15 -10 -12 -6 4 -17 1
-25 -5 -8 -6 -19 -9 -24 -5 -7 4 -8 -1 -4 -11 4 -12 3 -15 -5 -10 -6 4 -21 -3
-32 -14 -20 -20 -20 -23 -5 -46 9 -14 25 -34 36 -45 11 -11 17 -25 13 -31 -4
-6 -3 -8 4 -4 6 3 15 0 19 -9 5 -8 17 -16 28 -18 11 -1 26 -7 34 -11 10 -6 12
-5 7 2 -5 8 1 12 14 12 12 0 19 -4 16 -8 -3 -5 1 -9 9 -9 8 0 12 4 10 8 -6 9
76 6 92 -4 6 -4 14 -3 18 3 3 5 11 10 16 10 6 0 8 -4 5 -8 -3 -5 1 -9 9 -9 8
0 12 4 9 9 -3 4 0 8 5 8 6 0 11 -5 11 -11 0 -8 4 -8 15 1 8 6 20 8 27 4 7 -5
31 -9 53 -9 26 -1 39 -6 37 -14 -1 -7 2 -10 8 -6 6 3 8 11 5 16 -10 14 7 11
26 -7 13 -12 19 -12 25 -3 4 8 3 10 -4 5 -7 -4 -12 -2 -12 4 0 8 7 9 18 5 9
-4 26 -7 37 -7 11 1 23 -4 28 -11 6 -8 7 -7 4 4 -3 9 6 23 24 35 16 10 32 27
35 38 3 10 9 14 13 9 3 -5 15 0 25 11 19 19 19 19 0 12 -18 -7 -18 -6 1 12 11
11 23 18 26 16 7 -4 22 34 20 49 -1 4 3 7 9 7 6 0 6 9 0 25 -5 14 -6 25 -2 25
4 0 0 5 -8 10 -13 9 -13 10 0 10 12 1 11 3 -3 11 -15 9 -16 13 -5 27 7 9 8 14
4 10 -5 -4 -15 -3 -22 2 -14 13 -51 22 -81 22 -13 0 -21 3 -19 7 3 4 -4 7 -15
7 -10 0 -19 -5 -19 -10 0 -5 -6 -1 -14 9 -13 18 -13 18 -24 -1z"/>
<path d="M2525 3937 c-11 -7 -22 -13 -24 -14 -2 -2 2 -9 9 -18 7 -8 9 -15 4
-15 -5 0 -2 -5 6 -10 13 -8 13 -10 1 -10 -11 0 -10 -3 3 -13 10 -7 19 -25 19
-39 1 -14 5 -24 8 -22 3 2 11 -8 18 -22 8 -19 8 -24 0 -18 -7 4 -9 3 -5 -4 3
-6 20 -17 36 -26 17 -8 27 -10 24 -4 -4 7 0 7 12 0 11 -5 25 -7 33 -4 9 3 11
0 6 -9 -6 -11 -5 -12 6 -1 16 14 33 16 24 2 -6 -9 27 -16 50 -10 6 1 17 2 25
1 8 -1 27 -2 42 -2 15 -1 26 -4 24 -8 -2 -3 7 -7 20 -7 14 -1 21 2 18 8 -4 6
-1 9 6 6 7 -2 24 6 38 19 14 13 31 23 38 23 8 0 14 5 14 11 0 5 4 8 9 5 5 -3
20 5 32 19 13 13 29 25 35 25 7 0 11 11 10 24 0 15 -5 21 -11 16 -6 -5 -18 -2
-29 6 -10 7 -22 11 -27 9 -4 -3 -10 -1 -14 5 -3 5 -19 10 -35 10 -17 0 -33 7
-39 18 -8 13 -10 14 -11 2 0 -9 -3 -11 -8 -4 -4 5 -18 10 -32 10 -16 0 -24 5
-22 14 2 11 0 11 -11 1 -12 -9 -18 -8 -31 4 -11 11 -16 13 -16 4 0 -7 -7 -5
-16 7 -8 10 -13 13 -9 7 4 -8 0 -13 -10 -13 -9 0 -14 4 -11 8 3 5 -1 9 -9 9
-8 0 -15 -5 -15 -11 0 -5 -7 -1 -16 10 -8 10 -13 13 -9 7 4 -9 -1 -13 -14 -13
-12 0 -21 4 -21 9 0 11 -39 9 -57 -2 -6 -4 -15 -3 -18 3 -5 8 -12 7 -23 -2
-12 -10 -14 -10 -8 0 9 14 7 14 -19 -1z"/>
<path d="M4380 3921 c0 -9 -9 -12 -29 -9 -18 3 -28 0 -24 -6 4 -5 0 -7 -9 -3
-9 3 -21 0 -28 -6 -10 -9 -11 -9 -6 3 6 11 4 11 -6 -1 -13 -16 -56 -35 -71
-31 -5 1 -6 -2 -3 -7 8 -12 -43 -53 -57 -44 -6 3 -7 1 -3 -6 4 -6 0 -14 -8
-17 -9 -3 -13 -11 -9 -17 4 -6 0 -8 -11 -4 -9 4 -15 3 -12 -2 6 -10 -40 -52
-48 -44 -3 4 -6 -1 -6 -11 0 -9 -4 -14 -10 -11 -5 3 -10 0 -10 -7 0 -7 -12
-24 -25 -37 -22 -20 -24 -21 -20 -5 3 11 -1 6 -9 -11 -8 -16 -15 -25 -16 -20
0 6 -6 -1 -13 -15 -7 -14 -23 -27 -36 -28 -19 -3 -21 -6 -10 -13 10 -6 8 -9
-11 -10 -14 0 -19 -3 -13 -6 8 -3 2 -13 -17 -29 -17 -14 -35 -22 -41 -18 -7 4
-10 3 -7 -2 3 -5 0 -15 -8 -22 -11 -10 -14 -10 -14 0 0 7 -8 0 -19 -17 -16
-27 -17 -33 -4 -58 8 -16 12 -35 9 -42 -3 -10 0 -12 12 -8 15 6 15 5 3 -10
-12 -15 -12 -17 4 -10 14 5 17 3 12 -10 -4 -12 -1 -17 9 -17 12 0 15 -7 12
-29 -3 -22 -1 -28 10 -23 12 4 14 0 9 -17 -3 -13 -3 -20 0 -17 7 7 43 -49 43
-66 0 -6 8 -20 18 -31 12 -15 13 -18 2 -12 -9 5 -7 -1 5 -15 13 -15 15 -21 5
-16 -8 4 -6 0 4 -8 11 -9 16 -16 11 -16 -5 0 -4 -5 3 -12 7 -7 12 -23 12 -36
0 -22 3 -23 54 -20 30 1 52 6 50 10 -3 5 2 8 10 8 9 0 16 6 16 13 0 8 4 7 10
-3 8 -13 10 -13 10 2 0 11 5 15 15 12 8 -4 15 -1 15 6 0 7 7 10 16 6 8 -3 13
-2 10 3 -7 11 22 23 36 14 7 -3 8 -1 4 5 -4 7 -3 12 3 12 5 0 12 9 16 19 4 13
12 18 22 14 12 -5 14 -3 8 7 -6 10 -4 12 9 7 9 -4 15 -3 12 2 -3 4 11 23 32
42 l37 34 -30 -35 -30 -34 36 29 c20 17 35 31 33 33 -4 6 44 52 55 52 6 0 11
5 11 11 0 5 5 7 12 3 6 -4 8 -3 5 3 -4 6 5 21 20 34 14 13 23 17 18 9 -4 -8 3
-4 17 10 13 14 23 28 21 32 -2 3 9 16 24 27 16 11 32 25 37 30 4 5 17 19 27
30 11 13 25 19 32 14 7 -4 5 2 -3 12 -8 10 -10 16 -4 12 7 -4 18 1 25 10 12
14 12 16 0 8 -10 -5 -12 -4 -7 3 4 7 14 12 22 12 8 0 13 4 9 9 -3 6 1 13 9 18
14 8 16 12 16 34 0 5 4 8 9 4 5 -3 13 0 17 6 5 8 3 9 -6 4 -9 -5 -11 -2 -6 11
13 44 15 74 4 68 -7 -5 -9 0 -5 15 4 15 -1 24 -15 32 -11 6 -17 17 -14 24 3 9
0 12 -10 8 -8 -3 -14 1 -14 10 0 9 -9 19 -21 22 -15 5 -17 10 -9 20 9 11 7 12
-9 8 -13 -3 -21 -1 -21 6 0 7 -3 10 -7 8 -11 -5 -43 30 -35 38 4 3 -2 3 -12
-1 -14 -5 -17 -4 -12 5 5 8 3 11 -5 10 -20 -3 -50 12 -43 22 3 5 -2 6 -10 3
-8 -3 -21 -2 -28 2 -7 5 -19 9 -27 11 -8 1 -18 8 -22 15 -7 11 -9 11 -9 -1z
m40 -168 c0 4 10 2 23 -5 12 -7 26 -11 31 -10 5 2 3 -4 -4 -13 -11 -13 -10
-15 3 -10 8 4 18 1 23 -6 5 -8 3 -10 -7 -4 -12 7 -12 6 -1 -7 11 -14 10 -18
-5 -28 -16 -10 -16 -11 0 -6 20 6 20 5 7 -28 -5 -14 -16 -26 -25 -26 -8 0 -15
-5 -15 -11 0 -6 -5 -7 -12 -2 -18 11 -39 13 -33 3 6 -9 -11 -7 -37 4 -18 8
-28 27 -35 70 -3 21 -1 26 8 20 8 -5 11 -2 6 8 -3 10 5 25 21 39 l27 24 -20
-25 -20 -26 25 26 c16 17 28 22 32 16 4 -6 8 -7 8 -3z"/>
<path d="M3167 3729 c-20 -11 -37 -24 -37 -30 0 -6 -7 -8 -16 -5 -10 4 -13 2
-8 -6 5 -7 2 -9 -9 -5 -12 4 -14 2 -10 -10 5 -12 3 -14 -8 -8 -8 4 -11 5 -7 0
4 -4 3 -14 -2 -20 -7 -9 -6 -16 5 -25 12 -10 13 -16 3 -27 -10 -12 -9 -18 5
-28 13 -9 15 -15 7 -20 -8 -5 -7 -12 3 -23 8 -10 13 -25 12 -34 -2 -10 1 -18
6 -18 5 0 9 -5 9 -11 0 -5 -6 -7 -12 -3 -9 5 -9 2 1 -9 7 -9 10 -17 6 -17 -4
0 -3 -6 2 -12 17 -23 24 -50 10 -41 -6 4 -4 -4 5 -19 13 -20 14 -28 5 -38 -7
-8 -8 -11 -1 -7 7 4 11 -4 12 -21 1 -45 5 -62 13 -62 3 0 9 -9 12 -20 3 -11 2
-18 -2 -15 -4 2 -8 -2 -8 -10 0 -8 4 -12 9 -9 4 3 8 -2 8 -10 0 -9 7 -16 16
-16 8 0 13 -4 10 -8 -2 -4 4 -8 14 -8 10 0 16 4 13 9 -3 5 4 4 14 -2 11 -6 23
-8 26 -4 4 3 14 0 24 -8 11 -9 14 -10 9 -1 -4 7 -1 12 9 12 10 0 13 -5 9 -12
-6 -9 -3 -9 9 1 10 8 24 10 34 6 10 -5 24 -7 32 -6 8 1 18 -3 22 -11 7 -11 9
-11 9 1 0 11 3 11 17 0 11 -10 14 -10 9 -1 -4 6 -3 12 3 12 5 0 13 -5 16 -10
4 -6 12 -7 18 -3 7 5 27 8 45 7 29 -2 32 0 32 26 0 16 6 31 13 33 7 3 5 6 -5
6 -12 1 -16 8 -13 22 2 11 -2 31 -11 44 -8 12 -11 30 -8 40 6 14 4 16 -6 10
-10 -6 -12 -4 -7 8 3 10 2 17 -3 17 -6 0 -9 3 -8 8 1 4 -4 20 -11 36 -6 16
-10 35 -7 43 3 7 0 12 -7 10 -7 -1 -11 6 -11 15 1 10 -3 15 -9 11 -6 -4 -8 0
-4 10 4 10 2 16 -6 14 -7 -1 -11 6 -11 15 1 10 -2 16 -6 15 -4 -1 -8 1 -9 6
-1 4 -10 16 -21 27 -12 12 -18 26 -14 32 4 7 3 8 -4 4 -7 -4 -12 -2 -12 4 0 6
-4 8 -10 5 -5 -3 -10 1 -10 9 0 9 -4 16 -9 16 -5 0 -11 9 -14 20 -3 11 -12 20
-20 20 -9 0 -19 9 -22 20 -3 11 -13 20 -21 20 -8 0 -14 6 -14 14 0 8 -5 18
-12 22 -7 5 -8 3 -3 -6 5 -8 -5 -5 -21 7 -29 21 -29 21 -67 2z"/>
<path d="M1475 3661 c-11 -5 -25 -6 -31 -4 -7 2 -15 -1 -19 -6 -3 -6 -11 -8
-17 -5 -7 5 -8 2 -3 -6 6 -10 4 -12 -9 -7 -9 4 -15 3 -12 -1 3 -4 -4 -14 -16
-21 -16 -10 -19 -10 -13 1 3 7 -2 3 -13 -10 -13 -14 -27 -20 -39 -16 -12 4
-14 3 -6 -3 9 -6 4 -17 -19 -38 -18 -17 -29 -24 -24 -17 11 18 -9 15 -25 -5
-12 -14 -12 -16 0 -8 10 6 12 4 7 -4 -5 -7 -14 -10 -22 -7 -7 3 -11 0 -8 -7 2
-7 -6 -17 -18 -22 -13 -6 -28 -20 -34 -32 -6 -13 -14 -20 -19 -15 -4 4 -5 -1
-2 -11 4 -11 3 -16 -3 -12 -6 3 -10 -1 -10 -10 0 -12 -5 -15 -16 -11 -14 6
-15 4 -4 -9 11 -13 11 -16 -1 -13 -9 2 -13 -4 -11 -14 2 -10 -2 -18 -8 -18 -5
0 -9 -3 -9 -7 1 -5 0 -10 -1 -13 -15 -39 2 -50 43 -28 21 11 21 10 7 -8 -14
-19 -14 -19 8 0 12 11 30 20 40 21 9 1 27 7 40 14 12 6 27 9 32 6 6 -3 10 -1
10 5 0 7 6 10 14 7 8 -3 13 1 12 11 0 9 5 16 12 15 6 -2 12 2 12 8 0 6 7 9 14
6 11 -4 13 -1 9 10 -5 13 -2 15 11 10 9 -4 15 -3 12 2 -8 12 51 64 63 56 7 -3
10 -3 9 2 -4 12 47 63 62 63 7 0 11 3 7 6 -3 3 5 18 18 32 14 14 21 29 17 32
-7 5 -13 24 -15 52 -1 10 -5 18 -10 18 -4 0 -5 5 -2 10 7 11 7 11 -20 1z
m-285 -195 c0 -2 -8 -10 -17 -17 -16 -13 -17 -12 -4 4 13 16 21 21 21 13z"/>
<path d="M2595 3601 c5 -9 -1 -12 -21 -11 -27 2 -33 1 -51 -5 -5 -2 -18 -6
-30 -10 -13 -4 -21 -11 -18 -15 3 -4 -2 -11 -11 -14 -9 -3 -12 -2 -8 5 3 6 -3
5 -14 -2 -12 -7 -18 -17 -15 -23 4 -5 -1 -7 -11 -3 -10 4 -15 3 -11 -3 6 -10
-29 -33 -38 -24 -3 3 -3 -3 0 -14 2 -11 0 -23 -6 -26 -6 -4 -11 -13 -11 -19 0
-7 4 -6 10 3 8 12 10 9 10 -13 0 -19 -4 -26 -12 -21 -7 4 -8 3 -4 -5 4 -6 12
-9 17 -6 5 4 7 -9 4 -30 -2 -21 0 -33 5 -30 14 9 12 -9 -2 -24 -8 -8 -8 -11
-2 -8 7 4 14 -2 17 -13 3 -14 1 -18 -6 -13 -7 4 -4 -5 5 -19 10 -15 14 -29 9
-32 -5 -4 -4 -24 3 -48 6 -24 11 -59 11 -79 0 -21 5 -36 13 -37 6 -1 19 -3 27
-4 8 -1 15 -5 15 -10 0 -5 4 -7 9 -3 5 3 13 0 16 -6 4 -5 13 -8 21 -5 8 3 14
-1 14 -9 0 -8 5 -15 11 -15 5 0 7 4 4 10 -7 12 24 2 44 -14 8 -6 17 -11 20
-11 3 0 5 -3 4 -7 -2 -4 3 -5 11 -2 8 3 17 1 21 -5 3 -6 12 -11 18 -11 7 0 6
4 -3 11 -12 9 -12 10 3 5 10 -3 21 -6 23 -6 3 0 2 -4 -1 -10 -4 -6 1 -7 11 -3
13 5 15 3 9 -7 -5 -9 -4 -11 4 -6 6 4 19 2 28 -6 14 -11 15 -11 9 0 -7 11 -3
11 20 0 35 -17 60 -17 56 1 -2 8 3 11 12 8 9 -4 15 -3 15 1 -4 23 3 34 17 28
9 -3 12 -2 9 5 -10 15 14 39 33 32 12 -3 13 -2 5 4 -9 6 -4 18 20 45 70 79 77
89 81 111 2 12 -4 40 -13 62 -10 22 -16 50 -15 63 1 12 -3 22 -7 22 -5 0 -9
14 -9 30 0 17 -5 30 -11 30 -8 0 -7 6 2 17 10 11 10 14 2 9 -12 -7 -17 10 -16
52 1 6 -3 12 -9 12 -5 0 -7 4 -4 9 7 11 -28 43 -37 34 -4 -3 -7 -2 -7 4 0 6
-9 9 -20 6 -11 -3 -20 0 -20 6 0 6 -8 10 -17 9 -40 -3 -64 2 -57 13 4 8 0 8
-15 0 -13 -7 -21 -8 -21 -2 0 6 -7 8 -15 5 -8 -4 -15 -2 -15 4 0 6 -8 8 -19 5
-10 -3 -21 0 -25 5 -3 5 -19 8 -36 6 -17 -2 -28 0 -25 5 3 5 0 13 -6 17 -8 5
-9 3 -4 -5z"/>
<path d="M3839 3523 c-13 -16 -12 -17 4 -4 16 13 21 21 13 21 -2 0 -10 -8 -17
-17z"/>
<path d="M1655 3490 c-4 -6 -15 -8 -25 -5 -12 4 -28 -5 -48 -25 -17 -16 -35
-30 -41 -30 -6 0 -8 -8 -4 -17 3 -10 2 -15 -2 -11 -5 5 -15 -1 -23 -13 -8 -11
-20 -18 -29 -15 -8 3 -11 1 -8 -5 8 -12 -41 -63 -53 -55 -6 3 -9 -2 -8 -12 0
-9 -5 -16 -11 -15 -7 2 -13 -3 -13 -10 0 -7 -9 -23 -19 -34 -11 -12 -17 -24
-14 -27 4 -3 1 -6 -5 -6 -9 0 -9 -9 1 -33 8 -17 13 -40 11 -50 -1 -9 1 -17 6
-17 4 0 11 -7 14 -16 3 -8 2 -12 -4 -9 -6 3 -10 1 -10 -4 0 -6 5 -11 11 -11 5
0 7 -4 4 -10 -3 -5 -2 -10 4 -10 5 0 8 -9 6 -20 -3 -13 0 -18 7 -14 7 5 9 2 6
-7 -2 -8 4 -22 14 -31 10 -10 18 -15 18 -12 0 3 7 -1 15 -9 8 -9 24 -13 35
-10 11 3 20 1 20 -4 0 -5 14 -10 32 -11 17 -2 36 -6 42 -11 6 -5 28 -11 49
-15 21 -4 35 -11 32 -16 -3 -4 4 -6 15 -3 13 3 22 -1 26 -12 5 -13 9 -14 15
-4 6 10 12 9 28 -5 12 -11 21 -15 21 -11 0 5 5 4 12 -3 8 -8 17 -8 30 -1 10 5
23 7 28 4 6 -4 7 1 3 11 -4 12 -3 15 5 10 7 -4 12 -2 12 3 0 6 7 11 15 11 9 0
18 6 21 14 3 8 17 22 31 31 18 12 24 13 19 4 -4 -8 1 -4 10 9 9 12 21 22 26
22 5 0 16 6 23 13 37 33 46 38 57 31 6 -4 8 -3 4 4 -3 6 3 13 14 17 11 4 17
11 14 17 -5 7 1 9 15 5 17 -4 21 -2 17 9 -3 7 -2 13 2 12 11 -4 62 44 56 54
-3 4 1 8 8 8 9 0 10 3 2 8 -13 8 -25 74 -12 66 4 -3 8 0 8 5 0 6 -4 11 -8 11
-5 0 -8 12 -7 28 1 15 -2 33 -8 40 -6 8 -5 12 4 12 10 0 10 3 1 12 -9 9 -9 15
1 27 10 12 9 13 -2 6 -11 -6 -13 -4 -8 8 4 10 1 17 -5 17 -7 0 -3 7 8 15 13
11 14 13 3 9 -12 -3 -18 2 -23 19 -3 14 -13 27 -21 31 -9 3 -13 2 -10 -4 7
-11 -8 -14 -19 -3 -10 11 -37 12 -30 2 3 -5 0 -9 -5 -9 -6 0 -11 4 -11 9 0 5
-12 8 -26 5 -19 -3 -24 -1 -18 8 5 10 4 11 -7 1 -14 -14 -33 -18 -25 -5 2 4
-4 8 -14 8 -10 0 -17 -3 -14 -7 2 -4 -5 -5 -16 -2 -11 3 -20 13 -21 22 0 14
-1 14 -7 1 -7 -15 -52 -24 -52 -10 0 5 -9 6 -20 3 -11 -3 -20 0 -20 6 0 6 -5
11 -11 11 -5 0 -7 -4 -4 -10 9 -14 -8 -12 -24 3 -11 10 -13 10 -7 0 4 -7 2
-13 -3 -13 -6 0 -11 5 -11 11 0 8 -4 8 -14 0 -11 -9 -18 -8 -30 4 -10 11 -16
12 -16 4 0 -9 -3 -9 -14 0 -10 9 -16 9 -21 1z"/>
<path d="M3596 3429 c2 -4 0 -11 -6 -14 -8 -5 -7 -11 1 -21 6 -8 8 -14 3 -14
-5 0 -1 -5 8 -11 10 -5 15 -16 12 -24 -4 -8 -1 -15 6 -15 9 0 9 -4 -1 -17 -8
-9 -9 -14 -3 -10 13 7 27 -7 37 -36 5 -13 3 -16 -6 -11 -9 6 -9 5 0 -8 7 -8 9
-19 5 -23 -4 -5 -1 -5 6 -1 11 6 17 -5 13 -26 0 -5 4 -8 9 -8 6 0 10 -9 10
-20 0 -11 5 -20 11 -20 6 0 9 -8 7 -17 -2 -10 2 -22 8 -28 16 -14 30 -60 15
-51 -15 10 -14 0 2 -16 8 -7 17 -26 21 -42 7 -27 6 -28 -11 -15 -16 12 -17 12
-6 -2 7 -9 9 -20 5 -24 -4 -5 0 -6 10 -2 17 6 19 -8 4 -32 -6 -10 -5 -12 2 -7
8 5 12 -2 13 -18 1 -14 2 -32 3 -38 1 -7 -2 -19 -8 -26 -6 -9 -6 -12 3 -10 9
2 14 -9 15 -30 0 -17 -2 -32 -6 -32 -4 0 -5 -12 -2 -26 3 -17 1 -23 -7 -19 -7
5 -7 0 1 -16 11 -19 10 -24 -6 -36 -11 -8 -13 -13 -5 -13 11 0 11 -3 0 -17 -9
-11 -10 -14 -2 -9 9 5 11 2 7 -8 -3 -9 -11 -13 -18 -9 -8 4 -8 2 1 -7 13 -15
7 -39 -16 -59 -15 -12 -14 -13 2 -8 16 6 16 4 2 -30 -8 -19 -15 -37 -15 -40 0
-2 -6 -1 -12 3 -9 5 -9 2 1 -9 9 -12 10 -17 2 -17 -7 0 -9 -4 -6 -10 3 -5 1
-10 -6 -10 -7 0 -10 -3 -6 -6 3 -4 -2 -14 -11 -23 -11 -10 -12 -12 -2 -6 13 9
13 8 1 -8 -8 -10 -21 -15 -29 -12 -12 4 -13 3 -2 -10 10 -12 10 -15 -4 -15
-10 0 -15 -4 -11 -9 3 -5 -4 -12 -15 -16 -11 -3 -20 -10 -20 -14 0 -9 -51 -35
-63 -32 -5 1 -6 -2 -3 -7 2 -4 -4 -14 -16 -21 -16 -10 -19 -10 -12 1 4 7 -5 0
-19 -15 -15 -15 -32 -25 -37 -22 -6 3 -10 1 -10 -5 0 -7 -9 -9 -22 -6 -13 3
-17 3 -10 0 18 -9 15 -24 -5 -17 -12 5 -14 3 -8 -7 6 -10 4 -12 -8 -7 -9 3
-18 0 -21 -9 -3 -9 -10 -12 -16 -9 -5 3 -10 2 -10 -4 0 -6 -7 -7 -17 -4 -11 4
-14 3 -9 -5 6 -11 -6 -17 -19 -9 -2 1 -10 -7 -18 -17 -8 -11 -19 -16 -25 -12
-7 4 -12 2 -12 -4 0 -6 -4 -8 -10 -5 -5 3 -10 1 -10 -4 0 -6 -9 -11 -20 -11
-11 0 -20 -5 -20 -11 0 -6 -9 -9 -20 -6 -11 3 -18 2 -15 -3 3 -4 -2 -11 -11
-14 -24 -9 -36 -7 -28 6 4 7 3 8 -5 4 -6 -4 -9 -11 -6 -16 3 -4 -2 -11 -11
-14 -10 -4 -13 -2 -8 7 4 6 -2 4 -14 -6 -11 -11 -26 -16 -31 -12 -6 3 -11 1
-11 -6 0 -7 -3 -9 -7 -6 -3 4 -12 2 -19 -4 -8 -6 -20 -9 -28 -6 -8 3 -16 1
-18 -5 -2 -6 -16 -10 -31 -10 -15 0 -30 -5 -33 -9 -3 -5 -10 -7 -15 -4 -5 4
-9 2 -9 -4 0 -6 -6 -8 -14 -5 -8 3 -17 0 -21 -6 -6 -9 -10 -9 -16 1 -7 11 -9
10 -9 -3 0 -10 -7 -18 -15 -18 -8 0 -15 5 -15 12 0 7 -6 4 -12 -5 -7 -9 -22
-18 -33 -20 -11 -1 -26 -6 -32 -10 -9 -6 -11 -3 -7 10 6 17 6 17 -7 0 -9 -10
-29 -19 -47 -19 -18 -1 -35 -5 -38 -10 -3 -5 -13 -3 -22 4 -12 10 -14 10 -8 1
7 -13 2 -14 -76 -16 -15 -1 -24 -5 -21 -11 4 -5 0 -7 -9 -4 -8 4 -21 2 -28 -2
-8 -5 -22 -4 -33 2 -12 6 -17 6 -13 0 8 -13 -38 -21 -57 -10 -9 5 -18 4 -22
-2 -9 -15 -58 -13 -49 3 4 6 -1 4 -11 -5 -17 -16 -19 -16 -30 -1 -10 13 -14
13 -20 3 -5 -9 -4 -11 3 -6 7 4 12 2 12 -3 0 -14 -6 -14 -32 0 -15 8 -19 8
-14 0 5 -7 -1 -10 -16 -7 -13 3 -23 5 -23 6 0 1 -10 3 -22 4 -12 1 -20 0 -18
-4 5 -9 -100 -4 -115 5 -9 5 -11 4 -6 -3 4 -7 3 -12 -3 -12 -5 0 -15 8 -20 18
-10 16 -10 16 -11 0 0 -14 -5 -16 -22 -10 -13 5 -35 8 -50 7 -16 0 -28 2 -28
6 0 3 -10 5 -22 5 -13 -1 -31 2 -40 6 -11 5 -18 5 -18 -1 0 -5 -9 -7 -21 -4
-16 4 -17 8 -7 14 9 6 9 9 1 9 -6 0 -15 -5 -18 -11 -5 -6 -11 -4 -19 7 -10 13
-15 14 -20 5 -6 -9 -12 -7 -23 6 -8 10 -12 12 -8 6 4 -8 0 -13 -9 -13 -9 0
-16 5 -16 12 0 6 -3 8 -7 5 -3 -4 -13 -1 -21 6 -10 7 -13 8 -9 1 4 -8 -5 -7
-31 2 -20 7 -36 18 -34 25 2 9 -1 9 -12 -1 -12 -9 -16 -10 -16 0 0 7 -7 10
-15 6 -9 -3 -15 0 -15 9 0 8 -4 14 -8 13 -12 -4 -82 25 -82 34 0 4 -5 8 -12 8
-7 0 -25 12 -41 28 -17 15 -27 20 -22 12 4 -8 -4 -3 -17 12 -14 15 -28 25 -32
21 -3 -3 -6 -1 -6 6 0 7 -4 10 -8 7 -5 -3 -15 4 -22 15 -8 10 -20 19 -28 19
-7 0 -11 4 -7 9 3 5 -4 12 -15 16 -19 6 -25 17 -21 39 1 5 -5 3 -14 -4 -14
-11 -17 -10 -22 8 -3 12 -10 19 -15 16 -6 -4 -8 3 -3 17 4 17 4 20 -3 10 -9
-12 -12 -12 -25 1 -12 12 -13 18 -4 27 9 9 8 11 -7 5 -15 -6 -17 -4 -11 7 7
12 6 12 -7 1 -13 -10 -17 -10 -23 5 -5 10 -7 21 -7 26 1 4 -4 6 -10 5 -7 -2
-12 3 -10 10 1 8 -1 11 -5 9 -11 -7 -33 19 -25 29 4 4 2 4 -5 1 -15 -9 -45 21
-37 35 4 7 2 8 -5 4 -7 -4 -15 2 -20 16 -6 13 -10 19 -10 15 -1 -4 -12 3 -26
17 -14 14 -23 31 -22 38 2 7 2 10 0 6 -3 -5 -9 -8 -14 -8 -6 0 -7 5 -4 10 3 6
0 10 -8 10 -8 0 -21 8 -28 18 -13 16 -13 16 6 2 18 -14 19 -13 8 1 -7 9 -9 20
-5 24 4 5 1 5 -7 0 -8 -4 -16 -2 -21 5 -4 7 -16 9 -27 6 -20 -6 -24 -30 -8
-55 5 -9 4 -12 -1 -8 -6 3 -10 -4 -11 -16 0 -12 1 -16 4 -9 3 6 9 12 14 12 6
0 7 -4 4 -10 -3 -5 -1 -10 5 -10 6 0 8 -4 5 -10 -3 -5 -1 -10 5 -10 6 0 8 -5
5 -10 -3 -6 -18 -8 -32 -6 -15 3 -32 -1 -40 -10 -9 -8 -23 -12 -31 -9 -9 3
-13 3 -10 -1 8 -8 -14 -34 -24 -27 -5 2 -8 -1 -8 -7 0 -6 -4 -8 -10 -5 -6 4
-7 -1 -3 -11 4 -12 3 -15 -6 -10 -8 5 -14 1 -18 -13 -3 -12 -12 -21 -20 -21
-8 0 -11 -4 -8 -10 3 -5 1 -10 -4 -10 -6 0 -11 -7 -11 -15 0 -8 -4 -15 -8 -15
-5 0 -14 -16 -22 -35 -7 -19 -17 -32 -21 -30 -4 3 -10 -2 -13 -11 -4 -10 -2
-13 7 -8 6 4 4 -1 -5 -12 -9 -10 -17 -21 -16 -24 0 -19 -16 -60 -24 -60 -5 0
-6 5 -2 12 5 7 3 8 -5 3 -9 -5 -10 -10 -2 -18 7 -7 5 -15 -7 -24 -9 -8 -11
-12 -4 -8 6 3 12 2 12 -4 0 -5 -6 -12 -12 -14 -7 -3 2 -4 20 -3 17 2 35 6 40
11 4 5 0 5 -8 0 -8 -4 -6 1 5 12 13 14 22 16 27 9 5 -7 8 -3 8 8 0 20 0 20 15
0 13 -18 14 -18 8 6 -3 14 -3 22 2 18 4 -4 13 -2 21 5 33 30 42 35 48 30 3 -4
13 2 22 13 8 10 13 13 9 7 -4 -9 -1 -11 9 -7 9 3 14 10 11 14 -6 10 24 22 36
14 5 -3 9 0 9 7 0 6 8 9 20 6 11 -3 18 -2 15 3 -3 4 2 11 11 14 9 4 13 2 8 -5
-3 -6 5 -3 20 6 14 10 26 14 26 10 0 -4 6 -3 12 2 7 5 24 10 37 11 26 1 56 22
32 22 -8 0 -11 6 -7 16 3 8 2 13 -2 11 -4 -3 -16 5 -27 16 -12 11 -14 17 -5
13 8 -4 6 0 -5 9 -11 9 -19 23 -17 32 2 8 -1 12 -6 9 -16 -10 -65 55 -52 68
13 13 47 -5 42 -23 -1 -6 2 -11 7 -11 5 0 12 -9 16 -20 3 -11 12 -19 18 -17 7
1 13 -5 13 -13 1 -8 2 -19 3 -24 0 -5 9 -2 19 5 9 7 14 10 10 5 -3 -4 7 -20
23 -35 16 -15 25 -32 21 -36 -4 -5 -2 -5 4 -2 12 7 71 -61 66 -76 -1 -5 2 -5
9 -2 7 5 3 16 -13 34 l-23 26 27 -24 c16 -14 28 -31 28 -39 0 -9 3 -13 6 -9 3
3 17 -6 30 -20 13 -14 24 -22 24 -18 0 4 14 -6 30 -24 17 -17 35 -31 41 -31 6
0 9 -7 6 -14 -4 -10 -1 -13 7 -10 8 3 17 0 22 -7 5 -8 3 -10 -7 -4 -12 8 -12
6 0 -8 15 -18 26 -23 16 -7 -3 5 -1 10 4 10 6 0 11 -4 11 -8 0 -5 12 -14 26
-20 14 -7 22 -17 19 -22 -4 -6 -3 -10 2 -9 25 4 44 -4 69 -30 16 -17 35 -28
46 -26 10 2 18 0 18 -6 0 -5 3 -8 8 -8 20 3 25 -2 12 -12 -12 -8 -10 -9 9 -4
16 5 21 4 17 -4 -4 -7 -1 -9 7 -5 8 3 18 0 22 -5 3 -6 11 -8 17 -5 7 4 8 2 4
-4 -4 -6 1 -10 11 -10 10 0 32 -5 48 -12 17 -7 33 -13 38 -12 4 1 7 -5 7 -13
0 -23 -4 -30 -15 -27 -5 2 -18 4 -27 5 -10 1 -18 5 -18 10 0 5 -9 7 -20 4 -11
-3 -20 -1 -20 3 0 4 -10 6 -22 2 -16 -4 -19 -2 -13 8 5 9 4 11 -3 6 -7 -4 -12
-12 -12 -17 0 -6 -7 -17 -15 -26 -8 -8 -13 -19 -10 -24 4 -5 2 -9 -3 -9 -6 0
-13 -7 -16 -16 -3 -8 -2 -12 4 -9 6 3 7 -1 4 -9 -3 -9 -10 -14 -14 -11 -4 3
-11 -2 -14 -11 -3 -8 -2 -12 4 -9 23 14 8 -4 -16 -20 -15 -9 -23 -12 -20 -6 4
6 2 11 -3 11 -6 0 -11 -5 -11 -11 0 -6 -5 -7 -12 -2 -19 11 -39 13 -32 1 8
-12 -29 -6 -38 7 -5 6 -8 5 -8 -2 0 -7 -7 -10 -15 -7 -8 4 -15 1 -15 -5 0 -6
-5 -11 -11 -11 -5 0 -7 6 -4 13 4 6 0 4 -8 -5 -16 -21 -32 -24 -21 -5 5 9 3 9
-7 -1 -8 -7 -14 -18 -14 -25 -1 -7 -7 -11 -14 -9 -7 1 -10 -2 -6 -8 3 -5 1
-10 -4 -10 -6 0 -11 -6 -11 -14 0 -8 -6 -17 -12 -19 -10 -4 -10 -6 0 -6 7 -1
11 -5 8 -10 -3 -4 -1 -22 4 -40 5 -19 5 -29 -1 -26 -17 11 -9 -4 16 -29 14
-14 24 -31 23 -38 -2 -7 3 -12 9 -13 7 0 20 -10 28 -23 9 -12 24 -22 33 -22
20 -1 54 -25 46 -32 -3 -4 1 -6 8 -5 32 1 49 -4 43 -13 -4 -6 1 -7 11 -3 12 4
15 3 10 -5 -5 -8 -2 -10 8 -6 9 3 16 1 16 -4 0 -6 12 -9 26 -6 16 3 23 1 19
-6 -4 -6 1 -7 11 -3 11 4 22 -1 30 -12 8 -10 14 -13 14 -7 0 9 5 10 19 3 10
-6 21 -7 25 -4 3 3 6 0 6 -7 0 -11 3 -11 12 -2 15 15 32 16 23 2 -8 -13 17 -8
28 5 4 6 10 5 16 -4 8 -12 12 -12 25 -2 11 10 16 10 16 2 0 -9 6 -8 23 1 12 7
24 13 27 13 39 5 80 80 74 137 -4 43 -18 62 -69 92 -25 15 -30 24 -30 54 0 20
4 43 9 51 6 9 5 12 -2 8 -6 -5 -8 1 -5 14 4 16 8 17 14 7 6 -9 9 -9 9 -1 0 6
-5 15 -10 18 -6 4 -5 12 4 21 9 8 12 22 9 31 -5 12 -3 14 7 8 10 -6 12 -4 7
10 -4 9 -2 24 5 32 6 8 7 13 2 12 -20 -3 -53 14 -47 25 4 6 -1 5 -10 -3 -11
-9 -17 -10 -17 -2 0 6 -3 10 -7 9 -5 -2 -8 2 -8 7 0 6 10 10 22 9 12 -1 20 3
17 7 -3 5 4 9 15 9 12 0 21 -3 21 -8 0 -4 28 -8 62 -10 34 -2 68 -8 74 -13 7
-6 15 -6 18 -1 6 10 42 9 52 0 3 -4 17 -4 31 -2 17 3 22 1 17 -7 -5 -8 -3 -9
7 -4 17 11 109 13 116 3 2 -5 12 -4 22 2 10 5 21 7 23 4 10 -9 48 -13 43 -3
-8 12 2 12 27 -2 12 -6 18 -7 14 -1 -3 5 1 12 9 16 8 3 17 1 20 -4 4 -6 11
-10 16 -10 6 0 8 4 5 8 -2 4 4 8 15 8 10 0 19 -5 19 -11 0 -5 5 -3 10 5 9 13
11 13 20 0 5 -8 10 -10 10 -4 0 7 9 14 20 17 11 3 18 1 14 -4 -3 -5 0 -9 5 -9
6 0 11 4 11 9 0 5 14 8 31 7 16 -1 33 2 35 6 3 5 13 3 22 -4 12 -10 14 -10 8
0 -4 6 -2 12 3 12 6 0 11 -6 11 -12 0 -7 5 -5 11 5 5 9 15 17 20 17 6 0 7 -4
4 -10 -3 -5 -1 -10 4 -10 6 0 11 4 11 9 0 5 8 8 18 6 9 -1 23 2 30 8 6 5 12 6
12 3 0 -4 10 -2 21 5 17 9 20 8 13 -3 -5 -8 2 -6 19 5 15 9 27 15 27 12 0 -2
12 0 26 5 19 8 23 7 17 -3 -4 -6 6 -4 21 7 23 15 30 16 37 5 7 -12 9 -12 9 0
0 8 6 11 16 7 8 -3 13 -2 10 3 -3 5 1 11 8 14 8 3 17 1 20 -6 3 -9 5 -8 5 1 1
7 6 10 11 7 6 -3 10 -2 10 3 0 5 13 8 30 7 16 -1 27 1 24 6 -5 9 9 12 48 12
10 0 15 3 13 8 -3 4 -1 10 5 14 5 3 10 0 10 -7 0 -10 2 -10 9 1 5 8 16 11 26
8 9 -4 14 -3 11 2 -8 12 20 22 41 14 10 -4 14 -2 10 4 -4 6 2 13 13 16 13 3
18 1 13 -6 -4 -6 7 -2 23 9 39 27 67 38 58 21 -6 -8 -3 -8 9 1 9 8 22 10 28 6
8 -4 9 -3 5 4 -7 11 7 16 41 15 7 -1 10 4 6 10 -4 6 2 8 15 5 12 -4 20 -3 17
2 -3 4 2 11 11 14 10 4 13 2 9 -7 -4 -6 0 -4 9 7 15 18 42 13 30 -6 -4 -7 -2
-8 4 -4 6 4 8 14 5 23 -5 13 -2 15 15 11 15 -4 27 0 36 14 10 14 15 16 19 6 3
-8 6 -6 6 6 1 13 6 17 21 13 11 -3 23 0 27 5 4 7 1 8 -7 3 -9 -6 -11 -4 -6 4
5 7 15 10 23 7 8 -3 12 -2 9 2 -3 5 11 16 30 27 19 10 34 22 34 28 0 5 6 4 14
-2 11 -9 14 -8 12 6 0 10 4 17 11 16 7 -2 17 7 23 18 7 11 18 18 25 15 9 -3
12 0 8 10 -3 7 0 14 6 14 6 0 17 11 23 25 6 14 15 25 20 25 5 0 6 -5 2 -12 -4
-7 -3 -8 5 -4 6 4 10 15 9 24 -2 9 3 16 9 15 7 -2 12 0 12 5 -3 19 2 33 10 28
5 -3 12 1 15 10 3 8 2 12 -4 9 -6 -3 -7 1 -4 9 3 9 10 13 15 10 5 -3 9 6 9 20
0 14 5 26 11 26 6 0 9 7 5 15 -3 9 0 15 9 15 18 0 20 16 3 23 -10 4 -10 6 0 6
7 1 10 6 7 11 -3 6 -2 10 3 10 6 0 10 6 9 13 -1 41 4 58 16 51 8 -5 8 -2 -2 9
-9 12 -10 17 -2 17 7 0 9 5 6 10 -4 6 -1 18 7 27 8 11 8 14 1 10 -8 -5 -11 0
-10 13 1 11 5 20 9 20 4 0 8 5 8 11 0 5 -6 7 -12 3 -10 -6 -10 -4 0 8 10 13
10 17 0 21 -10 4 -10 8 2 16 12 9 13 12 1 20 -11 7 -11 9 0 14 10 4 10 6 2 6
-7 1 -13 6 -13 12 0 5 5 7 11 3 8 -4 8 -1 1 12 -5 11 -9 40 -8 66 0 25 -2 44
-6 41 -5 -2 -8 0 -8 6 0 5 5 13 12 17 7 5 5 11 -8 21 -16 12 -17 15 -4 23 8 5
10 10 4 10 -7 0 -14 9 -17 19 -3 15 -1 18 12 15 9 -3 7 0 -5 8 -14 9 -21 22
-20 41 1 15 -2 27 -7 27 -4 0 -5 5 -2 10 3 6 1 10 -4 10 -6 0 -11 8 -11 18 0
10 -6 24 -12 31 -10 11 -10 12 -1 7 9 -5 11 -2 7 8 -3 9 -9 14 -14 11 -4 -2
-6 7 -4 20 1 14 -2 23 -7 19 -8 -5 -13 12 -12 43 1 7 -3 11 -7 8 -4 -2 -13 7
-21 21 -11 21 -11 27 0 33 10 6 9 10 -4 14 -10 5 -14 3 -9 -5 5 -7 3 -8 -5 -3
-7 4 -11 18 -9 30 3 16 1 22 -8 18 -7 -2 -18 5 -24 16 -8 15 -19 21 -40 19
-16 -1 -27 -5 -24 -9z m-1996 -1633 c0 -3 -4 -8 -10 -11 -5 -3 -10 -1 -10 4 0
6 5 11 10 11 6 0 10 -2 10 -4z"/>
<path d="M1375 3419 c-4 -6 -5 -12 -2 -15 2 -3 7 2 10 11 7 17 1 20 -8 4z"/>
<path d="M4525 3369 c-11 -16 -1 -19 13 -3 7 8 8 14 3 14 -5 0 -13 -5 -16 -11z"/>
<path d="M2995 3280 c3 -5 8 -10 11 -10 2 0 4 5 4 10 0 6 -5 10 -11 10 -5 0
-7 -4 -4 -10z"/>
<path d="M1090 3176 c-5 -5 -10 -7 -10 -2 0 4 -7 0 -16 -9 -10 -9 -25 -14 -36
-12 -10 3 -16 2 -13 -2 4 -8 -44 -36 -56 -33 -4 1 -10 -10 -13 -24 -4 -14 -11
-22 -16 -19 -6 4 -7 -1 -3 -11 4 -11 3 -15 -4 -11 -7 5 -9 -1 -5 -15 3 -14 2
-19 -6 -14 -8 5 -12 0 -12 -13 0 -11 -8 -25 -17 -30 -10 -6 -13 -11 -6 -11 7
0 10 -7 7 -15 -4 -8 -10 -13 -14 -10 -5 3 -6 -5 -2 -17 3 -14 1 -19 -6 -14 -7
4 -10 -1 -7 -14 2 -11 0 -20 -6 -20 -5 0 -9 -5 -9 -11 0 -5 6 -7 13 -3 6 4 1
-5 -13 -21 -14 -16 -19 -25 -12 -21 6 4 12 3 12 -2 0 -6 -7 -13 -16 -16 -13
-5 -14 -9 -5 -20 8 -10 9 -16 1 -21 -5 -3 -10 -15 -10 -26 0 -13 -4 -18 -12
-13 -10 6 -10 4 0 -7 14 -15 17 -33 4 -25 -5 3 -9 -1 -9 -9 0 -8 3 -12 7 -10
9 6 6 -27 -5 -44 -5 -10 -4 -12 3 -7 7 4 12 2 12 -3 0 -6 -5 -11 -12 -11 -6 0
-3 -7 8 -15 12 -9 14 -14 6 -15 -10 0 -9 -4 3 -16 9 -10 14 -25 12 -35 -3 -10
4 -25 14 -35 10 -9 16 -21 13 -25 -3 -5 0 -9 5 -9 6 0 11 -7 11 -15 0 -8 5
-15 10 -15 6 0 10 5 10 11 0 8 6 7 18 -2 16 -13 16 -13 2 5 -12 15 -12 20 -2
23 6 3 10 9 6 14 -3 5 -1 9 5 9 5 0 9 8 9 18 0 9 4 28 9 42 6 14 12 30 13 35
2 6 10 16 19 23 9 8 10 11 4 7 -7 -3 -13 -1 -13 4 0 6 5 11 11 11 5 0 8 4 4 9
-3 6 3 14 12 20 10 5 17 13 17 18 -1 4 3 7 9 5 7 -2 7 1 -1 10 -9 11 -6 18 13
32 14 10 22 22 19 27 -3 5 3 6 12 2 11 -4 15 -2 11 4 -4 6 3 19 14 29 19 17
20 17 14 -2 -4 -13 -2 -12 6 4 7 13 18 21 26 18 7 -3 12 0 10 7 -1 7 6 12 15
12 9 0 20 4 25 9 5 5 2 6 -7 1 -11 -6 -12 -5 -4 4 6 7 20 13 32 14 11 0 20 5
19 10 -1 5 4 12 12 15 9 3 11 0 6 -8 -5 -9 -4 -11 4 -6 6 4 9 11 6 16 -3 5 -1
12 5 15 8 5 8 11 1 19 -6 7 -8 16 -4 19 3 4 1 7 -5 7 -7 0 -12 9 -12 20 0 11
-5 20 -11 20 -6 0 -9 7 -5 15 3 8 0 15 -7 15 -8 0 -6 4 3 10 13 8 13 10 -1 10
-9 0 -20 7 -23 16 -9 23 -8 24 11 17 15 -6 16 -5 3 9 -8 9 -18 14 -22 11 -7
-4 -10 12 -7 34 0 3 -6 10 -15 15 -9 5 -13 15 -9 25 4 11 3 14 -5 9 -7 -4 -12
-1 -12 7 0 16 -25 18 -40 3z"/>
<path d="M3206 2957 c5 -15 3 -16 -20 -7 -18 6 -25 6 -21 0 3 -6 -3 -10 -14
-10 -11 0 -23 -5 -27 -12 -5 -7 -2 -9 7 -4 8 4 5 0 -5 -8 -11 -9 -16 -16 -12
-16 4 0 0 -7 -8 -16 -9 -8 -16 -22 -16 -30 0 -9 -5 -12 -12 -8 -7 5 -9 2 -5
-9 3 -9 0 -18 -9 -21 -9 -3 -12 -10 -9 -16 3 -5 1 -10 -4 -10 -6 0 -10 -4 -8
-9 1 -5 -7 -17 -18 -26 -11 -9 -14 -13 -6 -10 9 5 8 -1 -4 -19 -9 -14 -22 -23
-28 -19 -5 3 -7 1 -4 -5 10 -15 -3 -43 -16 -35 -6 3 -7 1 -3 -6 4 -6 4 -17 -1
-24 -5 -7 -9 -50 -8 -97 1 -47 -4 -91 -9 -99 -8 -11 -8 -13 2 -7 6 4 12 2 12
-3 0 -6 -6 -11 -12 -11 -9 0 -9 -3 1 -9 13 -8 13 -12 0 -27 -9 -11 -9 -15 -1
-10 7 4 12 1 12 -9 0 -10 -5 -13 -12 -9 -7 4 -8 3 -4 -5 12 -19 18 -63 7 -57
-6 4 -8 -3 -5 -16 13 -61 14 -69 5 -64 -10 7 -9 -20 2 -30 4 -4 2 -13 -4 -21
-9 -10 -8 -13 1 -13 8 0 10 -8 6 -25 -4 -14 -3 -26 1 -26 28 -5 61 -4 58 2 -3
3 7 11 21 18 20 9 24 9 18 -1 -4 -7 1 -5 12 4 16 14 23 15 33 5 10 -9 11 -9 6
5 -4 11 0 20 14 27 25 14 41 14 21 1 -8 -5 -10 -10 -4 -10 7 0 19 12 29 26 13
21 19 23 31 13 12 -10 13 -9 8 7 -4 10 -4 16 1 12 4 -4 14 0 22 10 8 9 11 11
7 3 -5 -9 -3 -12 4 -7 7 4 12 15 13 24 0 10 3 12 6 5 3 -10 7 -10 18 0 7 7 11
15 8 19 -2 4 4 5 13 1 12 -4 15 -3 10 5 -4 7 -3 12 3 12 6 0 22 12 37 26 21
22 28 24 36 13 8 -11 9 -11 5 3 -7 20 17 43 34 32 9 -5 10 -2 6 9 -6 16 3 22
26 18 5 -1 6 3 2 9 -3 5 -1 10 5 10 6 0 8 5 5 10 -3 6 -1 10 4 10 16 0 50 37
43 46 -4 4 1 4 11 1 11 -4 16 -3 12 3 -3 5 5 21 19 35 14 14 22 25 18 25 -4 0
4 10 18 21 14 11 18 18 10 14 -10 -4 -9 -1 3 8 9 8 17 19 17 26 0 6 5 11 12
11 6 0 8 3 5 7 -4 3 -2 12 4 20 6 7 8 13 4 13 -5 0 0 9 9 19 24 26 23 67 -4
129 -20 45 -21 55 -9 63 10 6 11 9 1 9 -19 0 -36 51 -20 63 10 6 9 7 -4 4 -9
-4 -19 1 -23 10 -4 13 -8 14 -17 5 -14 -14 -32 -16 -23 -3 3 5 0 13 -6 17 -8
5 -9 3 -4 -6 6 -10 4 -12 -9 -7 -11 5 -15 3 -10 -5 5 -8 2 -9 -10 -5 -10 4
-20 7 -22 7 -3 0 -2 6 1 13 4 6 0 4 -8 -6 -11 -13 -17 -15 -22 -7 -6 9 -9 9
-15 0 -6 -9 -12 -9 -30 0 -15 8 -20 8 -16 1 9 -13 -4 -14 -23 -2 -9 6 -22 6
-34 -1 -17 -9 -19 -8 -13 8 6 18 5 18 -8 2 -13 -18 -32 -26 -22 -10 2 4 -4 8
-15 8 -10 0 -19 -4 -19 -9 0 -5 -8 -3 -17 4 -11 10 -14 10 -9 2 10 -18 -4 -16
-26 4 -18 16 -18 16 -12 0z"/>
<path d="M2333 2893 c3 -5 -15 -8 -39 -7 -25 0 -48 -4 -51 -9 -3 -6 -1 -7 5
-3 7 4 12 5 12 2 0 -3 -13 -12 -30 -21 -16 -9 -30 -12 -30 -8 0 4 -7 -3 -16
-15 -8 -12 -24 -22 -35 -22 -10 0 -19 -4 -19 -10 0 -5 -7 -10 -16 -10 -9 0
-12 5 -8 13 4 7 3 9 -2 4 -5 -5 -9 -14 -9 -20 0 -7 -8 -11 -18 -11 -9 1 -14
-3 -10 -9 4 -6 0 -8 -11 -4 -9 4 -15 3 -13 -1 6 -9 -19 -33 -27 -25 -3 4 -6 1
-6 -5 0 -7 -3 -11 -8 -9 -11 3 -62 -39 -55 -46 3 -4 0 -13 -6 -21 -8 -10 -9
-16 -1 -21 15 -9 13 -58 -2 -50 -7 4 -6 1 3 -7 14 -11 16 -28 8 -65 -1 -4 1
-16 6 -26 4 -10 2 -24 -6 -34 -10 -12 -10 -15 -1 -9 6 4 12 3 12 -3 0 -5 -6
-12 -12 -14 -10 -4 -10 -6 0 -6 6 -1 12 -9 12 -18 0 -16 -2 -16 -11 -3 -9 12
-10 11 -4 -5 12 -33 12 -79 1 -87 -7 -5 -4 -8 7 -8 14 0 16 -4 7 -19 -6 -12
-6 -22 -1 -25 10 -7 9 -25 -2 -43 -5 -7 -5 -17 -2 -23 3 -5 -2 -10 -12 -11
-11 0 -13 -3 -5 -6 10 -4 10 -8 1 -19 -7 -8 -9 -17 -5 -21 3 -4 -6 -20 -21
-37 -16 -17 -20 -25 -11 -18 14 11 16 10 11 -7 -3 -12 -9 -21 -14 -21 -5 0 -9
-6 -9 -14 0 -8 -6 -17 -12 -19 -10 -4 -10 -6 1 -6 9 -1 8 -6 -6 -18 -10 -10
-12 -14 -5 -8 10 7 8 -4 -7 -33 -12 -23 -18 -42 -14 -42 5 0 1 -5 -7 -10 -12
-8 -11 -10 8 -10 12 0 24 1 27 3 2 1 11 -7 20 -18 10 -13 13 -14 10 -4 -5 12
0 16 17 15 13 -1 29 -5 36 -9 7 -5 12 -3 12 5 0 9 3 9 10 -2 5 -8 10 -10 10
-3 0 11 57 11 108 -1 13 -3 20 -1 17 5 -4 5 -2 9 4 9 5 0 13 -5 16 -10 5 -8
11 -7 21 1 13 11 19 5 14 -16 -1 -5 8 -1 19 9 16 14 21 16 21 5 0 -11 2 -12 9
-1 12 19 15 19 36 2 15 -12 17 -12 10 -1 -6 11 -4 13 8 8 10 -4 17 -2 17 5 0
7 4 7 13 0 8 -7 18 -7 27 -2 8 5 18 6 23 3 5 -3 12 0 16 6 6 9 15 9 35 1 17
-6 25 -6 21 0 -3 6 -2 10 4 10 5 0 18 3 28 6 15 5 15 4 3 -5 -8 -6 -10 -11 -4
-11 6 0 14 3 18 7 3 4 14 8 24 9 9 2 31 6 47 9 17 4 38 6 48 6 9 0 15 4 13 8
-3 4 1 8 9 9 8 1 22 3 30 4 8 1 13 3 10 6 -2 3 7 18 20 34 14 16 25 36 25 44
0 9 5 12 12 8 6 -4 8 -3 5 3 -7 12 14 63 26 63 5 0 5 5 2 10 -3 6 2 10 12 11
10 0 13 3 6 5 -9 4 -6 15 8 40 11 20 17 39 14 44 -3 4 0 10 5 12 6 2 13 12 14
23 2 11 9 19 16 17 6 -1 9 2 5 8 -3 6 -11 8 -16 5 -5 -3 -6 1 -3 9 4 9 1 16
-6 16 -10 0 -10 3 -1 14 9 11 9 16 0 21 -8 6 -7 10 2 16 10 6 11 9 2 9 -7 0
-13 7 -13 16 0 9 5 13 13 9 6 -4 4 0 -5 8 -14 11 -15 16 -5 27 7 8 8 11 1 7
-7 -4 -14 5 -18 24 -8 44 -8 51 5 43 6 -3 4 5 -5 18 -9 14 -14 32 -11 41 4 8
1 18 -5 22 -8 5 -7 11 2 23 11 13 11 14 0 8 -16 -10 -13 25 3 36 6 4 2 8 -7 8
-10 0 -18 7 -18 15 0 8 -5 15 -11 15 -5 0 -7 5 -4 11 4 6 1 9 -6 8 -24 -5 -60
12 -53 23 5 7 1 9 -9 5 -10 -3 -17 -2 -17 3 0 6 -3 9 -7 9 -21 -3 -34 2 -28
11 4 6 3 9 -2 8 -13 -3 -83 25 -83 34 0 4 -7 5 -15 2 -11 -5 -13 -2 -9 10 4
12 2 15 -9 11 -8 -4 -22 1 -30 10 -9 9 -19 16 -22 15 -28 -2 -35 1 -29 12 5 8
2 9 -10 5 -10 -4 -24 1 -36 13 -20 20 -36 27 -27 13z"/>
<path d="M1406 2779 c3 -5 -4 -9 -15 -9 -10 0 -21 -6 -24 -12 -3 -10 -8 -9
-23 2 -17 13 -18 13 -7 0 10 -13 8 -18 -9 -29 -16 -10 -19 -10 -13 1 3 7 1 6
-7 -3 -7 -9 -19 -14 -27 -11 -9 3 -11 0 -6 -8 6 -10 4 -12 -9 -7 -9 4 -15 3
-13 -1 3 -4 -1 -13 -9 -20 -11 -10 -14 -10 -15 0 0 7 -5 3 -11 -10 -6 -13 -17
-21 -24 -18 -9 3 -11 -1 -7 -11 4 -11 2 -14 -5 -9 -7 4 -12 1 -12 -6 0 -8 -9
-20 -19 -28 -11 -7 -18 -17 -15 -22 3 -4 0 -8 -5 -8 -6 0 -11 -7 -11 -16 0 -9
-5 -12 -12 -8 -7 4 -8 3 -4 -5 8 -13 -14 -71 -27 -71 -5 0 -6 -4 -2 -9 3 -5 1
-12 -5 -16 -6 -4 -8 -11 -5 -16 4 -5 1 -9 -4 -9 -6 0 -10 -3 -10 -7 3 -19 -2
-34 -9 -29 -5 3 -9 -1 -9 -9 0 -8 5 -11 11 -8 6 4 3 -2 -6 -13 -11 -13 -14
-24 -8 -34 5 -8 6 -18 3 -24 -3 -5 -2 -7 3 -4 5 3 15 0 22 -8 7 -8 9 -14 5
-14 -4 0 8 -14 27 -31 22 -20 28 -29 15 -25 -11 4 -16 3 -11 -1 4 -4 18 -8 29
-8 12 0 21 -6 19 -12 -1 -7 5 -13 13 -13 8 0 25 -11 39 -25 14 -14 29 -25 33
-24 12 1 63 -35 63 -44 0 -5 -5 -5 -12 -1 -7 4 -8 3 -4 -5 6 -9 11 -9 22 0 10
8 14 8 14 0 0 -6 6 -10 13 -9 6 2 11 -3 9 -10 -2 -9 4 -12 17 -7 14 4 21 0 26
-16 6 -16 9 -18 15 -8 7 11 12 10 27 -3 10 -9 30 -20 46 -23 15 -4 27 -11 27
-17 0 -5 4 -6 10 -3 5 3 20 -1 33 -10 13 -8 27 -12 30 -8 4 3 7 1 7 -6 0 -7 4
-10 8 -7 4 2 14 1 22 -4 18 -11 50 15 50 41 0 10 8 23 18 28 9 6 13 11 8 11
-6 0 -1 7 10 16 10 8 13 13 7 9 -19 -9 -16 6 5 22 9 8 12 12 5 9 -8 -5 -8 0 0
18 7 13 15 22 19 20 4 -3 5 2 2 10 -3 9 -1 16 5 16 6 0 10 3 10 8 -3 20 2 32
13 26 7 -4 8 -3 4 5 -4 6 -2 19 6 28 11 14 11 16 -2 8 -12 -6 -12 -5 -3 5 6 7
9 19 6 28 -4 10 -2 13 5 8 12 -7 10 13 -4 48 -5 14 -4 17 5 11 10 -6 11 -3 2
13 -14 27 -14 35 1 26 7 -5 8 -3 2 7 -5 8 -9 21 -9 29 0 8 -4 21 -9 29 -6 10
-5 12 2 7 7 -4 12 -2 12 3 0 6 -4 11 -9 11 -11 0 -9 19 3 39 6 10 5 12 -2 7
-7 -4 -12 -3 -12 3 0 5 6 12 13 14 9 4 8 6 -2 6 -11 1 -11 4 0 18 10 11 10 14
2 9 -8 -4 -13 -1 -13 9 0 10 5 14 13 9 10 -6 10 -4 0 7 -16 16 -17 33 -2 24 6
-4 5 2 -3 14 -7 12 -16 21 -21 21 -4 0 -6 4 -3 8 2 4 -5 9 -17 9 -12 1 -23 7
-25 13 -2 5 -8 8 -13 4 -5 -3 -9 0 -9 5 0 6 5 11 12 11 6 0 8 3 5 6 -4 4 -13
1 -22 -6 -10 -8 -15 -9 -15 -1 0 6 -9 11 -21 11 -13 0 -18 4 -13 12 5 7 3 8
-5 3 -8 -4 -25 2 -43 15 -17 13 -28 16 -24 9 4 -8 1 -6 -7 3 -8 10 -17 15 -20
11 -4 -3 -7 -1 -7 6 0 7 -5 9 -10 6 -6 -4 -21 0 -33 7 -27 18 -69 29 -61 17z"/>
<path d="M740 2381 c5 -10 17 -24 27 -32 17 -13 17 -13 1 7 -21 24 -23 38 -5
28 6 -4 8 -3 4 1 -4 5 -14 10 -22 11 -11 2 -12 -2 -5 -15z"/>
<path d="M1236 2103 c-6 -14 -5 -15 5 -6 7 7 10 15 7 18 -3 3 -9 -2 -12 -12z"/>
<path d="M3570 2017 c0 -5 -7 -6 -16 -3 -8 3 -12 2 -9 -4 7 -12 -26 -29 -44
-22 -8 3 -11 0 -7 -7 4 -6 2 -12 -3 -12 -6 -1 -15 -2 -19 -3 -5 0 -17 -9 -27
-19 -10 -10 -26 -16 -37 -14 -10 3 -15 1 -12 -4 3 -5 -1 -12 -10 -15 -16 -6
-18 -44 -2 -44 5 0 6 -3 3 -7 -4 -3 0 -11 8 -17 8 -6 16 -21 18 -33 2 -12 7
-26 12 -30 4 -5 5 -1 0 7 -6 11 -5 12 4 4 6 -6 13 -24 14 -41 1 -17 5 -29 8
-27 4 2 9 -5 12 -16 3 -11 0 -20 -5 -20 -7 0 -6 -5 1 -14 9 -10 9 -16 1 -21
-8 -5 -7 -11 2 -23 11 -13 11 -14 0 -8 -9 6 -11 2 -8 -16 6 -28 17 -88 18
-105 1 -7 5 -10 10 -7 4 3 8 -5 8 -18 0 -18 2 -20 10 -8 6 10 10 11 10 3 0 -7
8 -13 18 -13 10 0 28 -8 41 -17 16 -10 21 -12 16 -3 -6 10 -4 12 8 7 10 -3 17
-2 17 3 0 6 10 6 26 0 14 -6 23 -6 20 -1 -7 11 22 23 35 15 5 -3 9 -1 9 5 0 6
6 8 14 5 8 -3 17 0 22 7 5 8 3 10 -6 4 -8 -5 -11 -4 -6 3 4 6 13 9 21 5 8 -3
15 -1 15 5 0 5 7 13 16 16 15 6 15 4 3 -11 -13 -17 -13 -17 6 -4 11 8 34 28
52 44 17 16 36 26 42 23 6 -4 9 -1 5 7 -3 8 2 17 10 20 9 4 16 13 16 22 0 8 5
15 11 15 5 0 7 5 4 10 -3 6 -2 10 3 10 7 0 8 33 2 50 -1 3 -2 8 -1 12 0 5 -15
25 -35 45 -20 21 -34 31 -30 23 4 -8 -1 -5 -10 8 -9 12 -25 22 -36 22 -10 0
-17 4 -14 8 2 4 -9 14 -26 21 -22 10 -27 16 -17 22 10 6 10 9 2 9 -16 0 -63
44 -63 59 0 6 -5 10 -12 9 -6 -2 -14 6 -16 17 -2 11 -9 25 -14 30 -8 7 -8 6
-3 -4 6 -10 4 -12 -4 -7 -7 5 -10 15 -6 24 3 9 3 13 -1 9 -4 -4 -14 -2 -21 5
-18 15 -53 18 -53 5z"/>
<path d="M1520 1806 c0 -2 8 -10 18 -17 15 -13 16 -12 3 4 -13 16 -21 21 -21
13z"/>
<path d="M1650 1491 c0 -6 4 -13 10 -16 6 -3 7 1 4 9 -7 18 -14 21 -14 7z"/>
</g>
</svg>
